<?xml version="1.0" encoding="UTF-8" standalone="no"?>
<svg version="1.1" width="200" height="200" viewBox="0 0 200 200" xmlns="http://www.w3.org/2000/svg">
	<defs>
		<radialGradient id="grad1" cx="0.345" cy="0.345" r="1">
			<stop offset="0%" stop-color="#95bf0a" stop-opacity="1.0" />
			<stop offset="100%" stop-color="#f9e700" stop-opacity="1.0" />
		</radialGradient>
	</defs>
	<g transform="translate(-300, 0) scale(0.6)">
		<path d="m 751.5216,96.3461 c -1.6876,-2.0166 -3.2651,-3.8515 -4.7733,-5.5445 2.0533,1.2335 4.2223,2.5886 6.5625,4.0786 0.5034,-0.4318 1.0012,-0.8725 1.4897,-1.3471 -1.8987,-2.0486 -3.6605,-3.9057 -5.3291,-5.6149 2.177,1.1899 4.4917,2.4873 6.9981,3.9139 0.4352,-0.4664 0.8612,-0.9442 1.2825,-1.4369 -2.0276,-1.9693 -3.9067,-3.7568 -5.677,-5.3981 2.2262,1.0852 4.5981,2.2722 7.1688,3.5619 0.3882,-0.4962 0.7733,-1.0077 1.1476,-1.5321 -2.0859,-1.8065 -4.0151,-3.462 -5.8358,-4.9779 2.2256,0.9615 4.5905,2.0013 7.1405,3.1243 0.3567,-0.538 0.7097,-1.0804 1.0571,-1.6256 -2.0801,-1.615 -4.011,-3.0896 -5.8322,-4.4569 2.1722,0.8223 4.4754,1.7036 6.949,2.6442 0.3393,-0.5705 0.6752,-1.1388 1.0001,-1.712 -2.0281,-1.4003 -3.9201,-2.6932 -5.7087,-3.8968 2.0891,0.6901 4.3023,1.4115 6.6554,2.1779 0.3242,-0.5964 0.641,-1.1949 0.9505,-1.798 -1.9331,-1.1903 -3.7532,-2.2986 -5.4802,-3.34 1.9889,0.5595 4.0847,1.136 6.291,1.7444 0.3163,-0.6265 0.6206,-1.2488 0.9217,-1.8713 -1.8185,-0.9998 -3.5459,-1.9353 -5.1906,-2.8251 1.8722,0.4391 3.8326,0.8917 5.886,1.3619 0.3059,-0.6478 0.6044,-1.2996 0.9005,-1.9418 -1.6948,-0.8272 -3.3135,-1.6146 -4.8621,-2.3612 1.7488,0.3365 3.5695,0.6815 5.4638,1.034 0.3028,-0.6772 0.6041,-1.346 0.8958,-2.0128 -1.564,-0.6822 -3.0627,-1.338 -4.5129,-1.962 1.6216,0.2508 3.3059,0.5006 5.0451,0.7568 0.3041,-0.6979 0.6078,-1.3872 0.9058,-2.0793 -1.4383,-0.5583 -2.8253,-1.1017 -4.1724,-1.6255 1.5029,0.1815 3.054,0.3489 4.6485,0.5264 0.3122,-0.7139 0.6225,-1.4327 0.931,-2.1474 -1.3224,-0.4579 -2.6076,-0.9097 -3.8556,-1.3406 1.3894,0.1153 2.8228,0.2279 4.2893,0.3423 0.3241,-0.7449 0.6463,-1.4821 0.9686,-2.2192 -1.2222,-0.3809 -2.4129,-0.759 -3.5786,-1.1206 1.297,0.0704 2.626,0.1302 3.982,0.1951 0.336,-0.7724 0.6742,-1.5355 1.0135,-2.2992 -1.1411,-0.3183 -2.2534,-0.6351 -3.3454,-0.9387 1.2171,0.0328 2.4607,0.0456 3.7247,0.0723 0.3575,-0.8042 0.7137,-1.6023 1.0691,-2.3944 -1.0736,-0.2668 -2.1265,-0.5306 -3.1636,-0.787 1.1539,-0.0063 2.3367,-0.0258 3.5352,-0.036 0.3759,-0.8367 0.7511,-1.6674 1.1228,-2.4946 -1.0308,-0.2244 -2.043,-0.4465 -3.0445,-0.6694 1.1164,-0.0332 2.2523,-0.0844 3.4084,-0.1326 0.3954,-0.8699 0.7928,-1.7372 1.1822,-2.5885 -1.014,-0.1924 -2.0091,-0.3857 -2.9941,-0.5657 1.0981,-0.0701 2.2182,-0.1556 3.3551,-0.2322 0.4174,-0.9126 0.8288,-1.8085 1.2304,-2.6865 -1.0205,-0.1611 -2.0243,-0.3256 -3.0156,-0.4791 1.1084,-0.1031 2.2395,-0.2215 3.3883,-0.3286 0.4358,-0.9598 0.8597,-1.8873 1.2668,-2.7815 -1.0564,-0.1337 -2.0981,-0.2727 -3.1215,-0.4004 1.1446,-0.1366 2.3156,-0.2932 3.5052,-0.4445 0.4598,-1.0091 0.8904,-1.9716 1.2887,-2.8602 -1.1223,-0.1054 -2.2256,-0.214 -3.3148,-0.3159 1.2144,-0.1854 2.4557,-0.3865 3.7189,-0.5846 0.4977,-1.1181 0.9309,-2.106 1.2857,-2.9213 -0.6348,-0.036 -1.2636,-0.0766 -1.885,-0.1126 0.1628,-0.6843 0.3325,-1.3787 0.5017,-2.0749 -0.7883,0.1231 -1.7472,0.2734 -2.8423,0.457 -0.5652,1.298 -1.1295,2.5698 -1.6712,3.827 0.2633,-1.2123 0.5218,-2.4376 0.7954,-3.6804 -0.8682,0.1428 -1.8041,0.3065 -2.7948,0.4765 -0.5062,1.2376 -1.0034,2.4507 -1.4855,3.6476 0.2203,-1.1517 0.4358,-2.3183 0.6632,-3.5025 -0.8745,0.1546 -1.784,0.3141 -2.7217,0.482 -0.4583,1.2047 -0.9142,2.3858 -1.3544,3.5513 0.1881,-1.1217 0.3724,-2.2557 0.5618,-3.4133 -0.8543,0.1581 -1.738,0.3147 -2.6288,0.4746 -0.4256,1.2021 -0.8499,2.383 -1.2586,3.5519 0.1603,-1.1249 0.3153,-2.261 0.4826,-3.413 -0.8356,0.1444 -1.6818,0.2987 -2.534,0.4441 -0.4081,1.2316 -0.8116,2.4435 -1.1994,3.6366 0.1373,-1.1493 0.2736,-2.3156 0.416,-3.5005 -0.8035,0.1436 -1.6169,0.2806 -2.4351,0.4174 -0.3901,1.2935 -0.7845,2.5582 -1.1561,3.8027 0.1189,-1.1989 0.2317,-2.4207 0.3528,-3.6633 -0.774,0.1286 -1.5519,0.2608 -2.3344,0.389 -0.3863,1.3741 -0.7651,2.7188 -1.1292,4.0435 0.0948,-1.28 0.1902,-2.5763 0.2886,-3.9079 -0.7443,0.1211 -1.49,0.2384 -2.2391,0.3598 -0.3795,1.4854 -0.7531,2.9314 -1.1098,4.3533 0.0705,-1.3713 0.1408,-2.7762 0.2119,-4.2163 -0.7155,0.1103 -1.4355,0.2271 -2.159,0.3371 -0.3698,1.6198 -0.7338,3.201 -1.0822,4.7385 0.0399,-1.4905 0.0727,-3.0167 0.1104,-4.5889 -0.6905,0.1031 -1.385,0.2084 -2.0822,0.3178 -0.361,1.7781 -0.7121,3.5062 -1.0426,5.1895 -0.005,-1.6225 -0.0165,-3.2959 -0.0217,-5.0256 -0.6697,0.1005 -1.3439,0.2111 -2.0193,0.321 -0.3418,1.9557 -0.6731,3.8486 -0.9838,5.6793 -0.0569,-1.7617 -0.1214,-3.5907 -0.1888,-5.4954 -0.6522,0.105 -1.3023,0.2144 -1.9584,0.3241 -0.3134,2.1583 -0.6107,4.2332 -0.8854,6.2259 -0.1292,-1.9122 -0.2685,-3.907 -0.416,-5.9943 -0.6309,0.1104 -1.2658,0.2248 -1.9031,0.3477 -0.2663,2.3622 -0.5169,4.6247 -0.7463,6.7848 -0.2139,-2.0572 -0.4463,-4.2176 -0.6935,-6.5031 -0.6144,0.1259 -1.2323,0.26 -1.8509,0.3966 -0.2016,2.5812 -0.3876,5.0231 -0.5572,7.3483 -0.3164,-2.1989 -0.6576,-4.5166 -1.0326,-6.9822 -0.5991,0.1455 -1.2005,0.2934 -1.7979,0.4493 -0.1165,2.7854 -0.2186,5.4082 -0.3123,7.884 -0.4307,-2.3137 -0.9028,-4.7727 -1.4231,-7.4053 -0.5808,0.1696 -1.1604,0.3478 -1.7407,0.532 -0.01,2.9675 -0.0122,5.7373 -0.0178,8.3419 -0.5537,-2.398 -1.169,-4.9562 -1.8503,-7.7153 -0.5638,0.1985 -1.1284,0.4043 -1.6865,0.6238 0.1174,3.1079 0.226,5.9925 0.3176,8.6965 -0.6818,-2.4466 -1.4406,-5.056 -2.2812,-7.8859 -0.5543,0.2422 -1.102,0.4939 -1.6429,0.7514 0.2545,3.1887 0.4852,6.1239 0.6789,8.8727 -0.7974,-2.4335 -1.6863,-5.0265 -2.6826,-7.8454 -0.5424,0.2952 -1.0748,0.608 -1.602,0.9235 0.3867,3.1613 0.7296,6.0748 1.0231,8.8013 -0.8864,-2.3449 -1.876,-4.8431 -2.9758,-7.5455 -0.5474,0.3797 -1.0761,0.7743 -1.5945,1.1804 0.4951,3.0035 0.9271,5.7724 1.2991,8.3834 -0.9262,-2.1647 -1.9511,-4.4588 -3.0892,-6.9219 -0.562,0.4794 -1.1027,0.9618 -1.6331,1.4409 0.554,2.716 1.0395,5.2409 1.4549,7.633 -0.9185,-1.9396 -1.9319,-3.968 -3.0451,-6.1381 -0.5848,0.5684 -1.148,1.1331 -1.6905,1.7036 0.5633,2.3686 1.0551,4.5996 1.4807,6.7309 -0.867,-1.6835 -1.811,-3.4234 -2.8421,-5.2596 -0.6149,0.682 -1.1996,1.3704 -1.7546,2.0554 0.5149,1.955 0.9684,3.8245 1.3629,5.6308 -0.7576,-1.377 -1.5733,-2.7874 -2.4503,-4.2552 -0.6518,0.8568 -1.2636,1.7052 -1.8357,2.5509 0.398,1.4579 0.7534,2.8717 1.074,4.2563 -0.5841,-1.0118 -1.1983,-2.0337 -1.8471,-3.089 -0.7133,1.1157 -1.3605,2.2249 -1.9585,3.3214 0.2189,0.8275 0.4164,1.6435 0.6054,2.4548 -0.3281,-0.554 -0.6673,-1.1129 -1.017,-1.6784 -6.0852,12.0678 -7.6968,24.6348 -1.5691,34.5968 6.3381,9.7844 17.3123,12.0563 29.2994,9.3407 -0.3595,-0.5617 -0.7161,-1.1001 -1.0723,-1.6349 0.6121,0.4638 1.2314,0.9358 1.8506,1.4358 1.1009,-0.2905 2.2296,-0.6356 3.3884,-1.0511 -0.668,-1.0416 -1.3269,-2.0316 -1.9825,-2.9807 1.0494,0.7882 2.1128,1.6277 3.2009,2.5183 0.887,-0.3495 1.7884,-0.7361 2.7102,-1.1673 -0.9408,-1.4119 -1.8563,-2.7476 -2.7599,-4.0023 1.3774,1.0041 2.7864,2.0896 4.2538,3.2683 0.7465,-0.3817 1.5054,-0.792 2.2705,-1.2397 -1.2015,-1.6945 -2.3524,-3.2743 -3.4734,-4.7442 1.6401,1.1418 3.3368,2.3821 5.1296,3.7498 0.6462,-0.4039 1.2998,-0.8317 1.9576,-1.2855 -1.4473,-1.8934 -2.8188,-3.6338 -4.1408,-5.2436 1.8616,1.2109 3.8094,2.5426 5.8944,4.0044 0.5708,-0.4181 1.1404,-0.8465 1.7169,-1.2996 z m 37.2395,-68.5739 v 0 c 0.4325,-1.0081 0.6648,-1.5695 0.6686,-1.5693 0,0 -0.5431,0.0667 -1.5222,0.2142 -0.2635,0.5616 -0.5211,1.1132 -0.7773,1.6667 0.5391,-0.1005 1.083,-0.2031 1.6309,-0.3116 z" style="fill:url(#grad1)" />
		<path d="m 700.9007,105.4804 c 6.2903,-13.7996 15.0494,-22.9568 22.8605,-27.2347 10.1594,-5.8785 16.9548,-6.1973 16.8304,-6.5039 0.0703,0.3477 -6.582,-0.7407 -17.9292,3.6255 -8.5897,2.9869 -19.3776,11.5393 -27.8018,25.5153 -1.0802,-0.7538 -2.1656,-1.5085 -3.3124,-2.228 -22.2242,-14.6339 -64.7949,-19.5414 -97.0264,17.4023 -6.366,7.2099 -11.2913,15.3643 -14.924,24.027 -7.1857,1.6987 -13.0218,4.6037 -17.3116,7.0776 -18.6685,12.2328 -19.4071,18.7384 -18.2832,20.4874 1.6013,2.7261 5.7742,0.0282 23.2056,-7.4423 2.0541,-0.7311 4.3443,-1.5208 6.8454,-2.2157 -6.588,31.3376 1.3219,65.463 19.4997,85.6748 26.5118,32.0499 66.1929,33.9554 90.3336,20.1656 25.368,-13.3497 36.5784,-37.4569 40.7631,-52.9983 3.9497,-16.2588 2.7653,-25.585 3.0658,-25.5233 -0.2739,-0.1109 -0.2958,9.3956 -5.6552,24.4513 -4.4225,11.5733 -13.4523,27.2185 -28.847,37.8821 -1.3081,-19.1842 -3.0022,-32.6642 -3.5438,-48.3186 -1.2841,-28.9903 -0.0349,-55.4415 5.3459,-76.5234 11.997,10.2259 18.2865,22.4123 22.1261,31.412 8.5576,24.2025 7.1928,31.2434 10.574,31.0966 1.2819,0.3169 7.8112,-6.0366 1.0871,-36.1388 -3.5475,-12.1648 -10.9355,-29.5366 -27.9026,-43.6905 z m -96.3108,126.8171 v 0 c -15.291,-19.0388 -20.342,-49.7209 -11.9764,-76.0554 3.7497,0.4032 7.7345,1.3008 11.9476,2.9265 15.9334,5.8808 33.7669,24.0288 49.9496,53.4717 4.0991,7.3255 7.8741,14.8361 11.5272,22.3996 l 5.5052,11.4623 c 0.9625,1.9632 1.8873,3.8763 3.1169,6.0961 0.6788,1.0526 0.9124,1.7784 2.2145,3.4062 -22.2373,8.0058 -52.9777,2.176 -72.2846,-23.707 z m 70.2008,-32.6449 v 0 c -0.0774,3.9546 -0.0516,8.1532 0.0421,12.4515 -1.7394,-3.4209 -3.5351,-6.8368 -5.4311,-10.2328 -17.2671,-31.4336 -38.3566,-53.4624 -59.9661,-60.3539 -3.1606,-1.0243 -6.1934,-1.7077 -9.117,-2.1754 2.0178,-3.2635 4.2949,-6.384 6.8664,-9.3043 25.3033,-29.0358 58.6514,-25.8077 76.8865,-14.9556 1.0963,0.6292 2.1457,1.2803 3.1776,1.9396 -8.5463,22.5203 -12.1825,51.3364 -12.4584,82.6309 z" style="fill:#00a32c;fill-rule:evenodd" />
	</g>
</svg>
