<?xml version="1.0" encoding="utf-8"?>
<!-- Generator: Adobe Illustrator 15.0.1, SVG Export Plug-In . SVG Version: 6.00 Build 0)  -->
<!DOCTYPE svg PUBLIC "-//W3C//DTD SVG 1.1//EN" "http://www.w3.org/Graphics/SVG/1.1/DTD/svg11.dtd">
<svg version="1.1" id="Layer_1" xmlns="http://www.w3.org/2000/svg" xmlns:xlink="http://www.w3.org/1999/xlink" x="0px" y="0px"
	 width="161.029px" height="167.279px" viewBox="0 0 161.029 167.279" enable-background="new 0 0 161.029 167.279"
	 xml:space="preserve">
<g>
	<path fill="#12A44A" d="M132.077,19.833C99.45-7.837,50.57-3.82,22.9,28.805c-27.671,32.627-23.653,81.507,8.972,109.177
		c18.325,15.542,42.071,21.21,64.367,17.042l-5.531,6.057c-1.38,1.508-1.271,3.852,0.238,5.23s3.85,1.271,5.229-0.236l12.483-13.672
		c1.379-1.51,1.273-3.849-0.237-5.229l-13.669-12.482c-1.509-1.379-3.853-1.272-5.229,0.235c-1.379,1.512-1.273,3.854,0.237,5.233
		l6.972,6.367c-4.756,1.034-9.691,1.592-14.758,1.592c-38.225,0-69.212-30.986-69.212-69.213c0-38.225,30.987-69.212,69.212-69.212
		c38.227,0,69.213,30.987,69.213,69.212c0,8.165-1.423,15.995-4.019,23.268l0.024,0.07c-0.034,0.209-0.064,0.419-0.064,0.638
		c0,2.284,1.854,4.138,4.138,4.138c1.263,0,2.378-0.577,3.138-1.469l0.004,0.002c0.257-0.303,0.481-0.633,0.643-1.001
		c0.038-0.109,0.075-0.218,0.112-0.326C165.301,74.905,157.159,41.106,132.077,19.833z"/>
	<path fill="#12A44A" d="M92.423,40.309c0-2.117-1.717-3.833-3.834-3.833s-3.833,1.716-3.833,3.833v38.491l-27.887,26.512
		c-1.534,1.459-1.595,3.884-0.136,5.419c1.459,1.534,3.885,1.597,5.419,0.138l28.989-27.561c0.428-0.406,0.729-0.891,0.926-1.407
		c0.224-0.485,0.355-1.021,0.355-1.591V40.309z"/>
</g>
</svg>
